# xmcd CD database file
#
# Track frame offsets:
#	183
#	11450
#	24415
#	39730
#	52030
#	65773
#	77738
#	90948
#	104858
#	119245
#	133043
#	147760
#	161450
#	177225
#	191728
#	203538
#	224875
#	243870
#
# Disc length: 3632 seconds
#
# Revision: 0
# Processed by: cddbd v1.5.1PL0 Copyright (c) Steve Scherf et al.
# Submitted via: CDex 1.51
#
DISCID=090e2e12
DTITLE=IV Sarah Vanughan - Sassy
DYEAR=1991
DGENRE=Jazz
TTITLE0=No Smokes Blues
TTITLE1=East of Sun
TTITLE2=Lover Man
TTITLE3=Mean to Men
TTITLE4=I Can Make You Love Me
TTITLE5=My Kinda Love
TTITLE6=Body and Soul
TTITLE7=Tenderly
TTITLE8=Don't Blame Me
TTITLE9=Once in a While
TTITLE10=Summertime
TTITLE11=Ain't Misbehavin'
TTITLE12=Goodnight My Love
TTITLE13=It Might As Well Be Spring
TTITLE14=Nice Work if You Can Get it
TTITLE15=You're Not the Kind
TTITLE16=He's My Guy
TTITLE17=April in Paris
EXTD=YEAR: 1991
EXTT0=
EXTT1=
EXTT2=
EXTT3=
EXTT4=
EXTT5=
EXTT6=
EXTT7=
EXTT8=
EXTT9=
EXTT10=
EXTT11=
EXTT12=
EXTT13=
EXTT14=
EXTT15=
EXTT16=
EXTT17=
PLAYORDER=
